<?xml version="1.0" encoding="utf-8"?>
<!-- Generator: Adobe Illustrator 18.0.0, SVG Export Plug-In . SVG Version: 6.00 Build 0)  -->
<!DOCTYPE svg PUBLIC "-//W3C//DTD SVG 1.1//EN" "http://www.w3.org/Graphics/SVG/1.1/DTD/svg11.dtd">
<svg version="1.1" id="Layer_1" xmlns="http://www.w3.org/2000/svg" xmlns:xlink="http://www.w3.org/1999/xlink" x="0px" y="0px"
	 viewBox="0 0 238.6 201" enable-background="new 0 0 238.6 201" xml:space="preserve">
<g id="Layer_x0020_1">
	<g id="_1489495994176">
		<path fill="#373435" d="M27.3,14.3L26.4,21h6.6l-0.6,6h-6.6l-0.9,7.5h-6.2l0.9-7.5h-6.7l-0.9,7.5H5.6l0.9-7.5H0l0.6-6h6.6l0.9-6.7
			H1.6l0.7-6.1h6.6l1-7.8h6.2l-0.9,7.8h6.6l1-7.8h6.2L28,8.2h6.5l-0.6,6.1H27.3z M21,14.3L21,14.3h-6.6L13.5,21h6.6L21,14.3z"/>
		<polygon fill="#373435" points="62.6,34.6 53.8,21.4 49.4,26.2 49.4,34.6 40.5,34.6 40.5,0.4 49.4,0.4 49.4,14.7 62.2,0.4 
			72.6,0.4 59.9,14.5 73.4,34.6 		"/>
		<path fill="#373435" d="M112.8,17.4c0,10-7.9,17.5-18.5,17.5s-18.5-7.5-18.5-17.5c0-9.9,7.9-17.3,18.5-17.3S112.8,7.6,112.8,17.4z
			 M85,17.5L85,17.5c0,5.5,4.3,9.9,9.4,9.9c5.2,0,9.2-4.3,9.2-9.9s-4-9.7-9.2-9.7C89.2,7.8,85,12,85,17.5z"/>
		<path fill="#373435" d="M152.1,17.4c0,10.2-7.5,17.1-18.6,17.1h-14.4V0.4h14.8C144.6,0.4,152.1,7.3,152.1,17.4z M142.9,17.6
			L142.9,17.6c0-5.9-3.9-9.9-9.3-9.9H128v19.7h6C139.2,27.4,142.9,23.4,142.9,17.6z"/>
		<path fill="#373435" d="M180.3,28.5h-14.8l-2.4,6h-9.1l14.7-34.2h9.1l14.3,34.2h-9.5L180.3,28.5z M177.6,21.7L177.6,21.7
			l-4.7-12.2l-4.8,12.2H177.6z"/>
		<path fill="#373435" d="M209.5,7.3c-2.2,0-3.5,0.8-3.5,2.3c0,5.7,18,2.4,18,14.8c0,7-6.2,10.5-13.8,10.5c-5.8,0-11.7-2.1-15.8-5.5
			l3.5-7c3.5,3,8.9,5.2,12.4,5.2c2.7,0,4.3-0.9,4.3-2.7c0-5.8-18-2.3-18-14.4C196.6,4,202,0,210.2,0c5,0,10.1,1.6,13.7,3.8l-3.4,7.1
			C216.9,8.9,212.3,7.3,209.5,7.3z"/>
	</g>
	<g id="_1489495990784">
		<g>
			<g>
				<path fill="#373435" d="M176.1,69.8c-15.6,0-29.8,5.8-40.8,15.3c-2.4,2-4.7,4.2-6.7,6.7c-11.4-13-28.2-21.2-46.8-21.2
					c-15.6,0-30,5.8-41,15.3v94.3c11,9.5,25.3,15.3,41,15.3c19,0,36-8.6,47.4-22c8.9-10.4,14.5-23.7,15-38.2c0-0.8,0.1-1.5,0.1-2.3
					c0-0.9-0.1-1.8-0.1-2.7c0-0.4,0-0.8,0-1.2c0.6-6.2,3-11.8,6.6-16.5c6-7.6,15.3-12.5,25.8-12.4c17.6,0.2,31.8,14.8,31.5,32.4
					c-0.2,17.4-14.5,31.5-32,31.5c-10.1,0-19.1-4.7-24.9-12c-3,10.4-8.1,19.9-15,27.9c10.8,9.1,24.8,14.5,40,14.5
					c34.5,0,62.5-28.1,62.5-62.5S210.6,69.8,176.1,69.8z M113.8,135.6L113.8,135.6c-1.3,16.5-15.1,29.4-31.9,29.4
					c-17.6,0-32-14.3-32-32s14.3-32,32-32c16.6,0,30.3,12.7,31.8,28.9c0.1,1,0.1,2,0.1,3.1C113.8,134,113.8,134.9,113.8,135.6z"/>
			</g>
		</g>
		<g>
			<g>
				<path fill="#373435" d="M31.5,73.3V193c0,1.7-1.4,3.2-3.1,3.2H3.2c-1.7,0-3.2-1.4-3.2-3.2V92.2c0-0.9,0.4-1.9,1.2-2.5l25.2-18.9
					c0.1-0.1,0.3-0.2,0.5-0.3c0,0,0.1-0.1,0.1-0.1l0,0c0.1,0,0.1-0.1,0.1-0.1h0.1c0.1-0.1,0.1-0.1,0.1-0.1c0,0,0.1,0,0.1,0v-0.1
					c0.1,0,0.1,0,0.1,0l0,0c0.1,0,0.3-0.1,0.4-0.1c0.1,0,0.1,0,0.1,0c0.1,0,0.1,0,0.2,0s0.1,0,0.2,0.1c0,0,0.1,0,0.1,0l0,0
					c0.1,0,0.1,0,0.1,0l0,0c0.1,0,0.1,0.1,0.1,0.1l0,0c0.1,0,0.1,0,0.1,0l0,0c0,0,0.1,0,0.1,0.1c0.1,0,0.1,0,0.2,0.1
					c0,0,0.1,0,0.1,0.1c0.1,0,0.1,0,0.1,0c0,0.1,0.1,0.1,0.1,0.1c0.1,0.1,0.2,0.1,0.3,0.1c0.1,0.1,0.1,0.1,0.1,0.1c0,0,0,0,0.1,0
					c0,0.1,0,0.1,0,0.1s0.1,0,0.1,0.1c0,0,0.1,0,0.1,0.1c0.1,0,0.1,0,0.1,0.1c0.1,0.1,0.1,0.1,0.2,0.2c0.1,0.1,0.1,0.1,0.2,0.3
					c0,0,0,0.1,0.1,0.1c0,0.1,0.1,0.2,0.1,0.3C31.4,72.4,31.5,72.9,31.5,73.3z"/>
			</g>
		</g>
	</g>
</g>
</svg>
